# xmcd
#
# Track frame offsets:
#	150
#	3275
#	28240
#	46045
#	67072
#	73812
#	94855
#	112642
#	135592
#	153540
#	176397
#	203017
#	224407
#	227912
#
# Disc length: 3278 seconds
#
# Revision: 1
# Processed by: cddbd v1.5.1PL0 Copyright (c) Steve Scherf et al.
# Submitted via: CDex 1.50Beta5
#
DISCID=bc0ccc0e
DTITLE=MIC BANDITZ - SIXTH SENSE
DYEAR=2003
DGENRE=Rock
TTITLE0=Sixth Sense(Intro)
TTITLE1=What’s Your Secret?
TTITLE2=Unity
TTITLE3=Oh No!
TTITLE4=Extra Sensory Perception(Interlude)
TTITLE5=Industry,The
TTITLE6=AGEHA
TTITLE7=Radio Radio
TTITLE8=太郎物語
TTITLE9=Suicide Scandinavia VS VERBAL
TTITLE10=One After Another
TTITLE11=TOUCH THE SUN
TTITLE12=Do You See What I See?(Interlude)
TTITLE13=Tokyo Electrique Parade
EXTD=
EXTT0=
EXTT1=
EXTT2=
EXTT3=
EXTT4=
EXTT5=
EXTT6=
EXTT7=
EXTT8=
EXTT9=
EXTT10=
EXTT11=
EXTT12=
EXTT13=
PLAYORDER=
